Motion_kv08_l
version=1
nRows=9
nColumns=43
inDegrees=yes
endheader
time	pelvis_tilt	pelvis_list	pelvis_rotation	pelvis_tx	pelvis_ty	pelvis_tz	hip_flexion_r	hip_adduction_r	hip_rotation_r	knee_angle_r	ankle_angle_r	subtalar_angle_r	mtp_angle_r	hip_flexion_l	hip_adduction_l	hip_rotation_l	knee_angle_l	ankle_angle_l	subtalar_angle_l	mtp_angle_l	lumbar_extension	lumbar_bending	lumbar_rotation	neck_flexion	neck_lateral_bending	neck_rotation	arm_flex_r	arm_add_r	arm_rot_r	elbow_flex_r	pro_sup_r	wrist_flex_r	wrist_dev_r	hand_finger_flex_r	arm_flex_l	arm_add_l	arm_rot_l	elbow_flex_l	pro_sup_l	wrist_flex_l	wrist_dev_l	hand_finger_flex_l
      0.00250000	      2.25763261	    -25.48282656	     93.91143926	      0.00778650	      0.73343825	      1.89308546	     63.39738159	     -6.44160771	     -6.31603156	    -84.00054725	     37.04914222	      4.46880087	      2.95425179	     65.27472903	     -2.14365848	      0.33950148	    -83.16888817	     38.76158927	     -3.01949261	     -3.21885832	    -21.27354721	      2.16962824	     -3.18717122	     34.37777702	      1.28748943	      2.91872434	    118.96522040	    -35.50787974	     47.56553094	     56.58875116	    132.98382349	     22.34033326	    -12.88378138	      4.14019134	    -49.63644329	   -141.58185344	   -105.50402277	     54.70801532	    118.62159072	    -23.08570269	     -7.61143440	     58.08421093
      0.00500000	      2.17558614	    -25.58582909	     93.87482004	      0.00764272	      0.73128198	      1.89196208	     63.63325433	     -6.50588510	     -6.22719947	    -84.44666752	     37.34200826	      4.36591058	      2.96419881	     65.49222731	     -2.04697386	      0.37882338	    -83.63194391	     39.04445162	     -2.94165235	     -3.21894041	    -21.18406508	      2.12123565	     -3.20455060	     34.49015798	      1.25385980	      3.16225182	    119.49453650	    -35.33210233	     48.00492315	     56.11980105	    132.98513070	     23.38312824	    -12.93487714	      4.79060506	    -49.24909516	   -141.60469527	   -104.81482509	     54.53214274	    118.12692265	    -22.49683566	     -7.48402452	     58.31473241
      0.00750000	      2.16904242	    -25.65124234	     93.81901182	      0.00752095	      0.72910508	      1.89102134	     63.86320353	     -6.48269007	     -6.15863422	    -84.90014296	     37.53672609	      4.39472374	      2.98302608	     65.71942639	     -2.05808964	      0.38869828	    -84.11728197	     39.23682100	     -2.90317014	     -3.21479043	    -21.21804474	      2.15090738	     -3.18475863	     34.59781788	      1.32442741	      3.15427878	    120.25340507	    -35.14739771	     48.55444021	     55.68603682	    132.81841183	     24.58357458	    -13.05024433	      5.54857047	    -48.63471680	   -141.46930868	   -104.01728346	     54.54855224	    117.38047969	    -21.59064767	     -7.48930034	     58.72191168
      0.01000000	      2.14893856	    -25.68257807	     93.79174313	      0.00735586	      0.72711809	      1.88980418	     64.01089518	     -6.50996129	     -6.11490597	    -85.34736119	     37.72485995	      4.39694486	      3.01522821	     65.87177063	     -2.04276697	      0.40425031	    -84.59224347	     39.42072353	     -2.84561134	     -3.19716230	    -21.25113546	      2.19508067	     -3.18190128	     34.83741301	      1.15996576	      3.33643464	    120.92897529	    -34.98753596	     49.14964930	     55.25664137	    132.48243147	     25.72029132	    -13.18568634	      6.35502773	    -48.02341720	   -141.32690981	   -103.04821192	     54.56856916	    116.33800804	    -20.54224091	     -7.50562896	     59.15773047
      0.01250000	      2.14682071	    -25.68229830	     93.75549382	      0.00733260	      0.72515734	      1.88858870	     64.12509060	     -6.50446215	     -6.10044363	    -85.77099573	     37.86933289	      4.43098011	      3.06036730	     65.99173009	     -2.05184784	      0.44579126	    -85.05282985	     39.59293994	     -2.80995416	     -3.16473700	    -21.31834286	      2.21464320	     -3.24239005	     35.00551066	      1.27698537	      3.33889147	    121.58894473	    -34.75136639	     49.82863166	     54.74148589	    132.13027395	     26.67116150	    -13.21384786	      7.15238205	    -47.37692940	   -141.10279847	   -102.11184734	     54.69196406	    115.17429935	    -19.60632681	     -7.52115627	     59.51052065
      0.01500000	      2.14048495	    -25.54910818	     93.76542742	      0.00719356	      0.72359214	      1.88739030	     64.09168197	     -6.57490169	     -6.14005472	    -86.19624764	     37.97898839	      4.42659630	      3.23337215	     65.98003572	     -2.05086928	      0.45534109	    -85.49889524	     39.71202366	     -2.79192809	     -3.05125380	    -21.59983710	      2.35825371	     -3.52622732	     35.41646971	      1.01912087	      3.77003680	    122.25001958	    -34.25391502	     50.54538517	     54.11332031	    130.82480129	     26.34995993	    -12.98182725	      8.76214626	    -45.98233735	   -140.43186539	    -99.74230076	     55.13137627	    111.92717597	    -18.85870879	     -7.10612907	     59.39792894
      0.01750000	      2.10939253	    -25.59775687	     93.73140177	      0.00714268	      0.72165519	      1.88616222	     64.25087354	     -6.57484611	     -6.04623832	    -86.63721145	     38.17595834	      4.44098919	      3.28807731	     66.10619312	     -2.01246468	      0.50357713	    -85.91253792	     39.92358362	     -2.76442394	     -3.00127430	    -21.55769428	      2.30338037	     -3.54247263	     35.28925929	      1.25745484	      3.74154713	    122.73851000	    -34.17360562	     51.19432317	     53.74215361	    130.80369234	     27.24589690	    -12.98385224	      9.42903400	    -45.64078719	   -140.43530698	    -99.11653499	     55.12341232	    111.86638866	    -18.38700443	     -7.05569673	     59.68541828
      0.02000000	      2.05765706	    -25.68306255	     93.68904982	      0.00685083	      0.71963552	      1.88509832	     64.48482725	     -6.64578988	     -5.96051367	    -87.09230764	     38.31795199	      4.52612501	      3.36016828	     66.29578999	     -1.96734568	      0.47014155	    -86.33102846	     40.12098981	     -2.70029153	     -2.93451107	    -21.55572117	      2.32292769	     -3.48944489	     35.49666422	      1.08828563	      3.81335623	    123.43355962	    -34.13239335	     51.83151619	     53.42639530	    130.39402665	     28.36154633	    -13.26102884	     10.33038140	    -45.09685562	   -140.35355642	    -98.31987769	     55.18538271	    111.30199719	    -17.43406588	     -7.12774906	     60.22609390
      0.02250000	      2.01794187	    -25.69674774	     93.65978133	      0.00677911	      0.71789001	      1.88391772	     64.62150446	     -6.69462058	     -5.90228866	    -87.53441772	     38.37407855	      4.64915712	      3.49172705	     66.40246457	     -1.94773164	      0.46426715	    -86.74535361	     40.19089445	     -2.64279595	     -2.83163097	    -21.63516179	      2.33319765	     -3.55907617	     35.82708331	      0.94924533	      3.90786974	    124.10593581	    -33.97368354	     52.64637960	     52.93518411	    129.66992950	     28.99616460	    -13.45053862	     11.47564011	    -44.41839652	   -140.13762798	    -97.34161877	     55.33695375	    109.93753683	    -16.32830247	     -7.24735980	     60.80244129
